<svg xmlns="http://www.w3.org/2000/svg" xmlns:xlink="http://www.w3.org/1999/xlink" viewBox="0 0 19 9.79" xmlns:v="https://vecta.io/nano"><g fill="#fff"><path d="M1 0l.68.02h.43C3.28.05 4 .38 4.29 1.03a4.1 4.1 0 0 1 .13.92c0 .57-.13 1.06-.4 1.47l-.36.43c-.15.19-.44.37-.89.53a11.1 11.1 0 0 1-.65.17l.02.12v.92c0 .32-.11.58-.32.77-.18.19-.44.29-.76.31-.31 0-.58-.07-.82-.2C.1 6.35.02 5.89 0 5.1l.03-1.57L0 2.67a24.1 24.1 0 0 1 .05-.88l-.03-.75C.04.85.09.72.17.63L.39.41.68.12C.77.06.87.02 1 0zM.77.57l.03.73-.05 1v.03A4.9 4.9 0 0 0 .78 3L.75 4.65c.02.78.08 1.17.17 1.17.09.04.28.08.6.1.18 0 .29-.08.33-.23V4.35c0-.31.12-.47.35-.47a4.1 4.1 0 0 0 1.33-.4A1.2 1.2 0 0 0 4 2.87a3.3 3.3 0 0 0 .13-.88v-.07c0-.62-.14-1.02-.43-1.2C3.32.44 2.81.3 2.2.3A74.1 74.1 0 0 1 .97.28c-.11 0-.18.1-.2.29zm1.39.72h.07a1.7 1.7 0 0 1 .77.28c.13.12.2.27.2.47 0 .32-.14.55-.42.68-.14.08-.32.12-.53.12-.23 0-.35-.1-.35-.3v-.6a5.4 5.4 0 0 0-.02-.4c0-.14.09-.22.28-.25zm.02.87v.4h.27v-.13c0-.1-.09-.19-.27-.27zM7.17 0c.47 0 .84.11 1.1.32.2.2.35.53.45.98a6.5 6.5 0 0 1 .12 1c0 .31-.15.66-.45 1.03l-.43.42a9.2 9.2 0 0 0 .6 1.32c.12.18.18.34.18.48 0 .26-.09.45-.27.57l-.23.24c-.09.11-.28.17-.55.17l-.47.02c-.3 0-.51-.19-.63-.57v-.02a2.3 2.3 0 0 0-.24.41c-.09.11-.27.16-.53.16-.12.02-.23.03-.35.03-.43-.09-.65-.18-.65-.28-.11-.02-.17-.57-.17-1.67l-.03-.73.02-1.5v-1.3c0-.24.07-.41.22-.52l.28-.27c.12-.15.27-.23.44-.23 0-.02.07-.03.22-.03L7.17 0zM5.8.3h-.08c-.22 0-.33.07-.33.22l-.02 1.17.02.63-.02.97.12 2.35c0 .04.14.1.42.17h.05c.33 0 .5-.04.5-.13.02-.1.03-.19.03-.25v-.37c0-.4-.02-.76-.05-1.08.03-.13.08-.2.15-.2.11 0 .3.41.57 1.23a6.1 6.1 0 0 1 .22.58c.09.13.19.2.3.2H8c.29 0 .43-.04.43-.12.01 0 .02-.01.02-.02v-.17a13.5 13.5 0 0 0-.47-.9c-.22-.53-.33-.84-.33-.94.02-.08.13-.18.33-.3.38-.37.57-.72.57-1.03 0-.9-.18-1.52-.53-1.85-.22-.13-.58-.2-1.08-.2L5.8.3zm1.02.88c.34 0 .56.08.67.23.08.18.12.41.12.68 0 .35-.12.55-.37.62l-.27.03c-.36 0-.53-.09-.53-.27a6.4 6.4 0 0 1-.08-1.02c0-.19.16-.28.47-.28zm-.17.78l.05.48h.07l.08.02v-.02c0-.32-.07-.48-.2-.48zM10.6 0h.02c.33 0 .55.12.67.37a.4.4 0 0 0 .03.15l-.05 2.63.02 1.78v.43c0 .32-.06.58-.19.75l-.21.23c-.13.12-.29.18-.47.17l-.15.02h-.5c-.32 0-.54-.13-.67-.4a9.8 9.8 0 0 1-.07-1.35l.03-3.65c-.01-.06-.02-.11-.02-.15.03-.15.09-.26.17-.35l.22-.27c.07-.17.29-.28.67-.35l.5-.02zm-.13.28h-.15c-.32-.01-.5.06-.52.2l-.02 3.83c0 .9.03 1.35.1 1.35.07.08.17.12.3.12h.62c.12 0 .19-.08.2-.25l.02-.52-.03-1.88.05-2.65c0-.12-.16-.19-.47-.22l-.1.02zM14.98 0h.32c.29 0 .47.14.55.42l.02.13c0 .11-.01.22-.02.35l.05 1.15-.05 1.3.02.52v.73l-.02.55c.01.06.02.2.02.42s-.09.39-.27.52l-.26.32c-.1.09-.3.14-.61.14h-.45c-.31 0-.53-.18-.65-.55-.03-.06-.05-.11-.05-.13h-.02c-.15.14-.28.31-.38.5-.1.11-.23.17-.4.17-.1.02-.17.03-.22.03h-.4c-.28 0-.46-.12-.57-.37l-.05-.22.02-2.24-.03-.8v-.32l-.02-.85c0-.65.07-1.04.2-1.17l.13-.16c.14-.16.29-.29.46-.37.09-.03.18-.05.28-.05h.68a.6.6 0 0 1 .65.5l.02.08c.06-.05.14-.15.24-.3.09-.14.23-.23.43-.27.11-.03.24-.05.39-.05zm-.52.63l.06 1.53c0 .52-.03.78-.1.78h-.03c-.15-.16-.36-.79-.62-1.88-.12-.47-.21-.7-.28-.7 0-.02-.05-.04-.15-.05h-.87c-.12 0-.18.13-.18.38-.02.11-.03.34-.05.7a5.4 5.4 0 0 1 .03.62v.53l.03.94v.12l-.02 1.03v.9c.02.19.12.28.28.28h.52c.2 0 .3-.14.3-.43V3.92c0-.22.03-.33.08-.33.04 0 .15.22.33.67a19.4 19.4 0 0 0 .58 1.28c.07.18.16.27.27.27h.58c.2 0 .31-.07.33-.2V3.67l.03-1.68-.03-1.35V.52c0-.16-.08-.23-.25-.23V.27c-.56 0-.83.06-.83.18-.02.06-.03.12-.03.18zM17.59 0h.02a.9.9 0 0 1 .88.57c.04.15.07.27.07.39 0 .25-.13.57-.39.97a1.7 1.7 0 0 1-.4.35c0 .06-.11.18-.33.37h-.82c-.06-.11-.08-.22-.08-.32v-.18c-.29-.26-.43-.49-.43-.7-.01 0-.02-.01-.02-.02 0-.28.19-.56.58-.85.26-.38.56-.57.92-.57zm-.75.97c.02.17.16.34.4.52.03.07.05.11.05.13v.3c0 .09.04.13.13.13h.02c.36 0 .64-.34.83-1.02v-.2c-.07-.37-.28-.55-.63-.55h-.1c-.26 0-.49.18-.68.53-.01.06-.02.11-.02.15zm.95 2.45h.11a1.3 1.3 0 0 1 .83.31c.18.18.26.39.26.64v.07c0 .22-.06.37-.19.45l-.26.27c-.03.03-.06.04-.08.04v.01c.34.15.52.38.52.69v.16c0 .44-.1.82-.29 1.15a1.4 1.4 0 0 1-.33.41c-.11.09-.4.14-.86.14h-.11c-.51 0-.82-.09-.92-.26a1.3 1.3 0 0 1-.19-.76c-.01 0-.01-.03-.01-.08 0-.09.04-.19.13-.3l.14-.14.18-.19c-.15-.08-.26-.2-.34-.34a1.9 1.9 0 0 1-.15-.73c0-.46.12-.8.36-1 .2-.2.46-.36.8-.48l.4-.07zm-1.05 1.23c0 .47.13.78.38.93a3.5 3.5 0 0 0 .71.26c.21.1.31.26.31.47-.08.23-.22.34-.41.34h-.1c-.18-.01-.27-.07-.27-.17-.01 0-.03-.08-.04-.25-.03-.06-.08-.09-.14-.09h-.09c-.21 0-.32.08-.32.23 0 .44.09.71.26.81a1.6 1.6 0 0 0 .58.09h.27c.32 0 .56-.1.71-.3a1.7 1.7 0 0 0 .2-.83v-.28c0-.28-.22-.47-.67-.58-.47-.16-.7-.33-.7-.51 0-.22.08-.38.24-.47.08-.02.15-.03.2-.03h.08c.1 0 .19.06.28.18.02.2.07.3.15.31h.02c.25 0 .37-.03.37-.1.02 0 .04-.06.04-.19V4.3c0-.35-.25-.58-.76-.69 0-.01-.07-.02-.2-.02-.36 0-.66.12-.91.37-.14.16-.21.39-.21.68zm.88.12v.03c.05.07.1.11.14.12 0-.1-.04-.15-.12-.15h-.02z"/><path d="M4.78 6.81h.09c.25 0 .49.07.72.21.15.12.23.27.23.44v.05c0 .15-.05.25-.16.31L5.44 8c-.03.02-.05.03-.07.03h0c.3.1.45.26.45.47v.11c0 .3-.08.56-.25.79-.04.08-.14.17-.29.28-.1.06-.35.1-.75.1h-.1c-.45 0-.71-.06-.8-.18-.11-.12-.16-.29-.16-.52-.01 0-.01-.02-.01-.05 0-.06.04-.13.11-.2.03-.03.07-.06.13-.09l.16-.13c-.13-.06-.23-.13-.3-.23-.09-.17-.13-.34-.13-.5 0-.32.1-.55.31-.69.17-.14.4-.25.69-.33l.34-.05zm-.91.84c0 .32.11.53.33.64.15.06.35.12.62.18.18.07.27.18.27.32-.07.16-.19.23-.35.23h-.09c-.16-.01-.24-.05-.24-.12-.01 0-.02-.06-.04-.17-.03-.04-.07-.06-.12-.06h-.08c-.18 0-.28.05-.28.16 0 .3.08.49.23.56.13.04.3.06.51.06h.24c.28 0 .49-.07.62-.2.11-.16.17-.35.17-.57v-.19c0-.19-.19-.32-.58-.4-.41-.11-.61-.22-.61-.35 0-.15.07-.26.21-.32a.9.9 0 0 1 .17-.02h.07c.09 0 .17.04.24.12.02.13.07.2.13.21h.02c.22 0 .32-.02.32-.07.02 0 .03-.04.04-.13v-.11c0-.24-.22-.4-.66-.47 0-.01-.06-.01-.17-.02-.31 0-.58.09-.79.26-.12.11-.18.27-.18.47zm.76.08v.02c.04.05.08.07.12.08 0-.07-.03-.11-.1-.11h-.02 0z"/><path d="M7.58 6.82c.36 0 .57.05.62.14.03.06.05.12.05.17v.17c0 .17-.08.31-.25.42-.07.06-.16.09-.26.09l-.02.32c.01.12.02.3.02.53l-.01.58c.01.04.01.08.01.13 0 .1-.04.18-.12.23l-.16.13c-.07.04-.17.07-.31.07-.39 0-.61-.05-.67-.16-.03-.13-.05-.24-.05-.34l.02-1.14v-.28l-.01-.05c-.23 0-.37-.03-.44-.1-.04-.03-.06-.16-.06-.38v-.02c0-.11.03-.18.1-.23.12-.09.28-.17.5-.22.06-.01.36-.03.92-.05h.03c.03 0 .06 0 .1-.01zm-1.21.29v.28c0 .06.1.1.3.1.13 0 .19.05.19.16.01.02.01.06.01.12v.08L6.85 9.1c0 .21.03.31.1.31.1.02.26.04.47.05.1-.01.15-.04.15-.09 0-.09 0-.13-.01-.14l.01-.25v-.11l-.01-.87c0-.33.03-.5.08-.5 0-.01.02-.01.07-.02h.25c.07 0 .12-.05.13-.14v-.23c0-.1-.07-.15-.21-.15l-.28-.02c-.79.02-1.18.05-1.18.1-.02 0-.03.02-.05.07z"/><path d="M10.53 6.78h.04c.16 0 .28.05.34.15l.03.1-.02.5v.17l.01.42c0 .39-.08.74-.24 1.05a1.7 1.7 0 0 1-.25.32c-.07.07-.14.14-.21.19-.18.07-.38.11-.6.11h-.01c-.21 0-.45-.04-.7-.13-.18-.09-.3-.19-.37-.32-.08-.05-.14-.35-.18-.9 0-.06.01-.23.03-.51l-.01-.23h-.01l.01-.02v-.24c0-.02 0-.05-.01-.08 0-.07.03-.15.1-.23l.14-.12c.05-.05.12-.1.22-.16.08-.03.17-.04.26-.04h.09c.16-.01.28.05.37.15.03.05.04.11.06.19v.62c0 .21.02.46.06.76h.01l.05-.89-.01-.37c0-.08.04-.14.12-.18.05-.04.1-.08.15-.13.1-.12.29-.19.56-.19zm-.4.64a20.1 20.1 0 0 1-.08 1.23c-.04.16-.11.23-.21.23-.27 0-.4-.27-.4-.82-.01 0-.01-.1-.02-.3l.01-.62c-.02-.13-.1-.2-.23-.2-.21 0-.33.02-.36.07-.03.04-.04.08-.05.13l.01.23c0 .03 0 .07-.01.13l.02.22-.03.52c.03.47.07.73.13.79.08.15.2.26.38.33.2.06.38.09.53.09h.08c.4 0 .66-.23.78-.69a2.9 2.9 0 0 0 .08-.62l-.01-.62.02-.5c0-.06-.05-.09-.16-.11h-.12c-.18 0-.3.04-.36.11-.01.11-.01.24 0 .4z"/><use xlink:href="#B"/><use xlink:href="#B" x="2.43"/></g><defs ><path id="B" d="M11.92 6.83l.96.01a2.1 2.1 0 0 0 .14-.01c.18.02.3.05.36.09.07.06.11.17.11.33 0 .15-.04.24-.13.29l-.17.15c-.02.05-.12.07-.31.07h-.36v.05h.22c.23 0 .35.1.35.3v.05c0 .14-.05.24-.13.31l-.19.16c-.07.02-.15.03-.23.03v.67a.3.3 0 0 1-.12.26l-.17.15c-.08.03-.23.05-.45.05h-.15c-.15 0-.26-.04-.34-.13-.03-.06-.04-.15-.05-.26l.02-.75-.02-.6v-.21c.01-.09 0-.25-.01-.48-.01-.13.06-.24.21-.33.05-.05.15-.11.29-.18l.18-.03zm-.25.32a1.8 1.8 0 0 0 .02.28l-.01.2c0 .06 0 .14.01.22l-.02.34v1.07c0 .11.04.17.12.2l.17.02c.28 0 .42-.04.42-.11 0-.03 0-.08-.01-.16l.01-.67c0-.11.05-.17.15-.17 0-.01.09-.01.28-.02.08-.03.11-.07.11-.13v-.13c-.02-.09-.06-.13-.13-.13h-.27c-.11 0-.17-.06-.17-.17v-.13c0-.14.05-.21.15-.21l.24-.01h.37c.14 0 .21-.05.21-.14v-.06c0-.17-.05-.25-.14-.25-.04-.01-.09-.02-.15-.02l-.42.01c-.2 0-.39-.01-.54-.02-.23.01-.34.03-.34.07-.04.02-.06.06-.06.13z"/></defs></svg>