<svg xmlns="http://www.w3.org/2000/svg" xmlns:xlink="http://www.w3.org/1999/xlink" viewBox="0 0 30 15.45" xmlns:v="https://vecta.io/nano"><g fill="#fff"><path d="M1.58 0l1.08.03h.69c1.83.04 2.97.58 3.42 1.6a6.5 6.5 0 0 1 .21 1.45 4.2 4.2 0 0 1-.63 2.32l-.57.69c-.23.3-.7.58-1.41.84a17.5 17.5 0 0 1-1.03.26l.02.18v1.45c0 .5-.17.91-.51 1.22-.29.3-.69.46-1.2.49a2.6 2.6 0 0 1-1.29-.32c-.2-.18-.32-.9-.36-2.15l.05-2.48L0 4.21c0-.13.03-.6.08-1.4L.02 1.63c.04-.29.12-.5.24-.63L.62.65l.46-.47c.13-.08.3-.15.5-.18zm-.37.9l.05 1.16-.08 1.58v.05a7.7 7.7 0 0 0 .05 1.05l-.05 2.61c.03 1.23.12 1.84.26 1.84.13.07.45.12.95.16.28 0 .45-.12.53-.37V6.87c0-.49.18-.74.55-.74 1.1-.21 1.8-.42 2.11-.63a1.9 1.9 0 0 0 .74-.97 5.3 5.3 0 0 0 .21-1.4v-.11c0-.98-.23-1.61-.69-1.9C5.23.69 4.44.47 3.47.47A117 117 0 0 1 1.53.45c-.17 0-.28.15-.32.45zM3.4 2.03h.11c.4.04.8.19 1.21.45.21.18.32.43.32.74a1.1 1.1 0 0 1-.66 1.08 1.8 1.8 0 0 1-.84.19c-.37 0-.55-.16-.55-.47v-.95c0-.17-.01-.38-.03-.63 0-.22.15-.35.45-.4zm.02 1.37v.63h.42v-.21c0-.16-.14-.3-.42-.42zM11.31 0a2.7 2.7 0 0 1 1.74.5c.32.32.56.84.71 1.55a8.4 8.4 0 0 1 .18 1.58c0 .49-.24 1.04-.71 1.63l-.69.66A14 14 0 0 0 13.5 8c.19.28.29.53.29.76 0 .41-.14.7-.42.89l-.37.37c-.14.17-.44.26-.87.26l-.74.03c-.47 0-.81-.3-1-.9V9.4c-.06.06-.19.28-.37.64-.14.17-.42.25-.84.25-.19.04-.37.05-.55.05-.68-.14-1.03-.29-1.03-.45-.18-.03-.26-.9-.26-2.63L7.29 6.1l.02-2.37V1.68c0-.38.11-.65.34-.82l.43-.43c.2-.24.43-.36.7-.36 0-.03.11-.05.34-.05L11.31 0zM9.16.47h-.13c-.35 0-.53.11-.53.34l-.02 1.84.02 1-.02 1.53.18 3.71c0 .07.22.16.66.26h.08c.53 0 .79-.07.79-.21a1.7 1.7 0 0 0 .05-.39v-.58a17 17 0 0 0-.08-1.71c.04-.21.12-.32.24-.32.18 0 .47.65.9 1.95a8.1 8.1 0 0 1 .34.92c.14.21.3.32.47.32h.53c.45 0 .68-.06.68-.19.02 0 .03-.01.03-.02v-.26a21.3 21.3 0 0 0-.74-1.42 7.2 7.2 0 0 1-.53-1.48c.04-.12.21-.28.53-.47.6-.59.9-1.13.9-1.63 0-1.42-.28-2.4-.84-2.92-.35-.21-.92-.32-1.71-.32l-1.8.05zm1.6 1.4c.53 0 .89.12 1.05.37.12.29.18.65.18 1.08 0 .55-.19.87-.58.97l-.42.05c-.56 0-.84-.14-.84-.42a10.1 10.1 0 0 1-.13-1.6c0-.3.25-.45.74-.45zM10.5 3.1l.08.76h.11l.13.03v-.03c0-.51-.11-.76-.32-.76zM16.73 0h.02c.52 0 .87.19 1.05.58 0 .08.02.16.05.24l-.08 4.16.03 2.82v.69c0 .51-.1.91-.3 1.19l-.34.37c-.21.19-.46.28-.74.26-.1.02-.17.02-.24.02h-.79c-.51 0-.86-.21-1.05-.63-.05-.21-.09-.92-.11-2.13l.05-5.76a1.2 1.2 0 0 1-.03-.24c.05-.23.14-.42.26-.55l.34-.43c.11-.26.46-.45 1.05-.55l.79-.02zm-.21.45h-.24c-.51-.01-.78.1-.82.32l-.02 6.05c0 1.42.05 2.13.16 2.13.12.12.27.18.47.18h.97c.19 0 .29-.13.31-.39l.03-.82-.05-2.98.08-4.18c0-.18-.25-.3-.74-.34l-.16.03zM23.65 0h.5c.46 0 .75.22.87.66a1 1 0 0 1 .02.21 6.7 6.7 0 0 1-.02.55l.08 1.82-.08 2.05.02.82v1.16l-.02.87a5.1 5.1 0 0 1 .02.66c0 .35-.14.62-.42.83l-.41.51c-.16.15-.48.22-.96.22h-.71c-.49 0-.83-.29-1.03-.87-.05-.1-.08-.17-.08-.21h-.03a3.4 3.4 0 0 0-.6.79c-.15.18-.36.26-.63.27-.16.04-.27.05-.34.05h-.63c-.43 0-.73-.19-.89-.58l-.08-.34.03-3.53-.05-1.26v-.5l-.03-1.34c0-1.03.11-1.64.32-1.84l.2-.25a2.5 2.5 0 0 1 .72-.59c.14-.05.29-.08.45-.08h1.08c.55 0 .89.26 1.02.79L22 1c.1-.08.22-.24.38-.47.14-.22.37-.37.68-.43.18-.05.38-.08.61-.08zm-.82 1l.1 2.42c0 .83-.05 1.24-.16 1.24h-.05c-.24-.25-.56-1.24-.97-2.98-.19-.74-.34-1.1-.45-1.1 0-.04-.08-.07-.24-.08h-1.37c-.19 0-.29.2-.29.6-.03.17-.05.54-.08 1.11a8.5 8.5 0 0 1 .05.97v.84l.05 1.48v.18l-.03 1.63v1.42c.04.3.19.45.45.45h.82c.31 0 .47-.23.47-.69v-2.3c0-.35.04-.52.13-.52.07 0 .24.35.53 1.05a30.6 30.6 0 0 0 .92 2.03c.12.28.26.42.42.42h.92c.31 0 .49-.11.53-.32V5.79l.05-2.66L24.6 1V.82c0-.25-.13-.37-.39-.37V.42c-.88 0-1.32.1-1.32.29-.04.09-.05.19-.05.29zm4.95-1h.03c.66 0 1.12.3 1.4.89.07.23.11.43.11.61 0 .4-.2.9-.61 1.53-.17.2-.38.39-.63.55 0 .09-.18.29-.53.58h-1.29c-.09-.18-.13-.35-.13-.5v-.29c-.46-.4-.69-.77-.69-1.1-.02 0-.02-.01-.02-.03 0-.44.31-.89.92-1.34.4-.6.89-.89 1.45-.89zm-1.19 1.53c.04.27.25.54.63.82.05.11.08.18.08.21v.47c0 .14.07.21.21.21h.02c.57 0 1.01-.54 1.32-1.61v-.32c-.12-.58-.45-.87-1-.87h-.16c-.41 0-.77.28-1.08.84a1.2 1.2 0 0 0-.03.24zm1.51 3.88h.17a2.1 2.1 0 0 1 1.32.49c.28.28.42.61.42 1V7c0 .35-.1.58-.29.71l-.42.43c-.05.05-.09.07-.12.07v.02c.54.23.81.6.81 1.09v.26c0 .69-.15 1.3-.46 1.81-.08.19-.26.4-.52.65-.18.15-.63.22-1.36.22h-.17c-.81 0-1.29-.14-1.46-.42-.2-.28-.29-.67-.29-1.2-.01 0-.02-.04-.02-.12 0-.15.07-.3.21-.47.06-.06.13-.14.23-.21l.29-.31c-.24-.13-.41-.31-.54-.54a3 3 0 0 1-.24-1.16c0-.73.19-1.26.56-1.59a3.1 3.1 0 0 1 1.26-.75 3.1 3.1 0 0 1 .62-.1zm-1.66 1.94c0 .74.2 1.23.61 1.47a5.3 5.3 0 0 0 1.12.41c.32.16.49.41.49.75-.13.36-.34.54-.64.54h-.16c-.29-.02-.43-.11-.43-.28-.02 0-.04-.13-.07-.4-.05-.09-.13-.14-.23-.14h-.14c-.33 0-.5.12-.5.36 0 .7.14 1.13.42 1.28.23.09.54.14.92.14h.43c.51 0 .89-.16 1.13-.47.21-.37.31-.81.31-1.32v-.43c0-.44-.35-.75-1.06-.92-.74-.25-1.11-.52-1.11-.8 0-.35.13-.6.38-.75a1.5 1.5 0 0 1 .31-.05h.12c.16 0 .31.09.43.28.04.31.12.47.24.48h.03c.39 0 .59-.05.59-.16.03 0 .06-.1.07-.29v-.26c0-.56-.4-.92-1.2-1.09a1.2 1.2 0 0 0-.31-.03c-.57 0-1.05.2-1.44.59-.22.26-.33.62-.33 1.08zm1.39.19v.05c.08.1.15.17.22.19 0-.16-.06-.24-.19-.24h-.03zM7.55 10.75h.15c.4 0 .78.11 1.14.33.24.19.36.42.36.69v.07c0 .24-.09.4-.26.49l-.36.3c-.04.03-.08.05-.1.05v.01c.47.16.71.41.71.75v.18c0 .48-.13.89-.4 1.24-.07.13-.22.28-.45.45-.16.1-.55.15-1.18.15h-.15c-.7 0-1.12-.1-1.26-.29-.17-.19-.26-.46-.26-.82-.01 0-.02-.03-.02-.08 0-.1.06-.21.18-.32l.2-.15.25-.21a1.1 1.1 0 0 1-.47-.37c-.14-.26-.21-.53-.21-.79 0-.5.16-.86.49-1.09A3 3 0 0 1 7 10.82l.54-.07zM6.1 12.08c0 .51.18.84.53 1.01a5.5 5.5 0 0 0 .98.28c.28.11.42.28.42.51-.11.25-.3.37-.56.37h-.13c-.25-.01-.38-.08-.38-.19-.02 0-.04-.09-.06-.27-.04-.06-.11-.1-.2-.1h-.12c-.29 0-.44.08-.44.25 0 .48.12.77.36.88.2.06.47.1.8.1h.38c.44 0 .77-.11.98-.32.18-.26.27-.56.27-.9v-.3c0-.3-.31-.51-.92-.63-.64-.17-.96-.35-.96-.55 0-.24.11-.41.33-.51.11-.02.2-.03.27-.03h.1c.14 0 .27.06.38.19.03.21.1.32.21.33h.03c.34 0 .51-.04.51-.11.03 0 .05-.07.06-.2v-.18c0-.38-.35-.63-1.04-.75 0-.01-.09-.02-.27-.02-.5 0-.91.13-1.25.4-.19.18-.29.42-.29.74zm1.2.13v.03c.07.07.13.12.19.13 0-.11-.05-.17-.16-.17H7.3h0z"/><path d="M11.97 10.76c.57 0 .9.08.98.23.05.09.08.18.08.27v.26c0 .27-.13.49-.4.66-.12.09-.26.14-.42.14l-.03.5a8.8 8.8 0 0 1 .03.84l-.01.91c.01.06.01.13.01.2 0 .16-.06.29-.19.37l-.26.21c-.11.07-.27.1-.49.1-.62 0-.97-.08-1.05-.25a2.3 2.3 0 0 1-.07-.53l.03-1.79v-.44l-.02-.08c-.36 0-.59-.05-.69-.15-.06-.05-.09-.25-.09-.61v-.02c0-.17.05-.29.16-.37a2.2 2.2 0 0 1 .79-.35 19.7 19.7 0 0 1 1.45-.07h.05c.05 0 .1 0 .15-.01zm-1.91.46v.44c0 .1.16.15.48.15.2 0 .3.08.3.25.01.03.02.1.02.19v.12l-.03 2c0 .32.05.49.15.49a5.6 5.6 0 0 0 .74.07c.16-.02.24-.07.24-.14l-.01-.23.01-.39v-.18l-.01-1.38c0-.52.04-.78.12-.78 0-.01.03-.02.1-.02h.39c.12 0 .19-.08.21-.23v-.36c0-.16-.11-.24-.33-.24l-.44-.02c-1.24.03-1.87.08-1.87.16-.03 0-.05.04-.07.11zm6.56-.52h.06c.26 0 .44.08.54.24l.05.15-.03.78v.26l.01.66a3.6 3.6 0 0 1-.38 1.66 3 3 0 0 1-.4.51c-.11.12-.22.22-.34.31a2.4 2.4 0 0 1-.95.17h-.02c-.34 0-.71-.07-1.11-.2-.28-.14-.47-.31-.59-.51-.13-.08-.22-.56-.29-1.41 0-.1.01-.37.04-.81l-.01-.36h-.02l.02-.02v-.38c0-.03-.01-.08-.02-.13 0-.11.05-.24.15-.37l.23-.19a2.1 2.1 0 0 1 .35-.25 1.4 1.4 0 0 1 .41-.06h.13a.7.7 0 0 1 .59.24c.04.08.07.18.09.3l-.01.97a9.7 9.7 0 0 0 .09 1.2h.01l.08-1.4-.02-.58c0-.12.06-.22.19-.28l.24-.2c.16-.2.46-.3.89-.3zm-.63 1.01a31.7 31.7 0 0 1-.12 1.94c-.06.25-.17.37-.33.37-.42 0-.63-.43-.63-1.29a2.9 2.9 0 0 1-.03-.48l.02-.99c-.04-.21-.16-.31-.36-.31-.33 0-.52.04-.57.11-.04.06-.07.13-.08.21l.02.37c0 .04-.01.11-.02.2l.03.34-.04.82c.05.74.12 1.16.21 1.25.12.24.32.42.6.52.32.1.6.14.84.14h.12c.63 0 1.04-.36 1.23-1.09a4.6 4.6 0 0 0 .12-.99l-.01-.99.03-.78c0-.09-.09-.14-.26-.17h-.19c-.28 0-.47.06-.57.18a6.9 6.9 0 0 0 0 .63z"/><use xlink:href="#B"/><use xlink:href="#B" x="3.85"/></g><defs ><path id="B" d="M18.81 10.79l1.52.01c.05 0 .12 0 .23-.01.29.03.48.08.57.14.11.1.17.28.17.52 0 .23-.07.39-.2.46l-.27.23c-.03.07-.19.11-.49.11h-.57v.08h.35c.37 0 .56.16.56.47v.07c-.01.22-.07.38-.2.49l-.3.25c-.11.03-.24.05-.37.05v1.06c0 .18-.06.31-.19.4l-.27.24c-.12.05-.36.08-.71.08h-.24c-.23 0-.41-.07-.54-.2-.04-.1-.07-.23-.08-.4l.03-1.19-.03-.94v-.33a6.9 6.9 0 0 0-.01-.76c-.01-.21.1-.38.33-.52.08-.08.23-.17.45-.28l.29-.05zm-.39.5c0 .17.01.31.03.44l-.02.31c0 .1.01.22.02.34l-.03.53v1.69c0 .17.06.27.19.31l.27.02c.44 0 .66-.06.66-.18 0-.05 0-.13-.01-.25l.01-1.06c0-.17.08-.26.24-.26 0-.01.15-.02.44-.03.12-.04.18-.11.18-.2v-.2c-.03-.13-.1-.2-.21-.2h-.42c-.18 0-.27-.09-.27-.26v-.2c0-.22.08-.33.24-.33l.38-.01h.59c.22 0 .33-.08.33-.23v-.1c0-.26-.08-.39-.23-.39-.06-.02-.14-.03-.24-.04l-.66.01c-.32 0-.61-.01-.86-.02-.36.01-.54.05-.54.11-.06.03-.09.1-.09.2z"/></defs></svg>